<svg width="70" height="70" viewBox="0 0 70 70" fill="none" xmlns="http://www.w3.org/2000/svg">
<path d="M22.8229 37.9167L37.1146 52.2083C37.6979 52.7917 37.9779 53.4722 37.9546 54.25C37.9313 55.0278 37.627 55.7083 37.0417 56.2917C36.4583 56.8264 35.7778 57.1064 35 57.1317C34.2222 57.1569 33.5417 56.8769 32.9583 56.2917L13.7083 37.0417C13.4167 36.75 13.2096 36.434 13.0871 36.0937C12.9646 35.7535 12.9053 35.3889 12.9092 35C12.9131 34.6111 12.9743 34.2465 13.0929 33.9062C13.2115 33.566 13.4176 33.25 13.7113 32.9583L32.9613 13.7083C33.496 13.1736 34.1649 12.9062 34.9679 12.9062C35.771 12.9062 36.4632 13.1736 37.0446 13.7083C37.6279 14.2917 37.9196 14.9849 37.9196 15.7879C37.9196 16.591 37.6279 17.2832 37.0446 17.8646L22.8229 32.0833H55.4167C56.2431 32.0833 56.9363 32.3633 57.4963 32.9233C58.0563 33.4833 58.3353 34.1756 58.3333 35C58.3314 35.8244 58.0514 36.5176 57.4933 37.0796C56.9353 37.6415 56.2431 37.9206 55.4167 37.9167H22.8229Z" fill="#114014"/>
</svg>
