<svg width="70" height="70" viewBox="0 0 70 70" fill="none" xmlns="http://www.w3.org/2000/svg">
<path d="M47.177 37.9167H14.5833C13.7569 37.9167 13.0647 37.6367 12.5066 37.0767C11.9486 36.5167 11.6686 35.8245 11.6666 35.0001C11.6647 34.1756 11.9447 33.4834 12.5066 32.9234C13.0686 32.3634 13.7608 32.0834 14.5833 32.0834H47.177L32.8854 17.7917C32.302 17.2084 32.0221 16.5278 32.0454 15.7501C32.0687 14.9723 32.373 14.2917 32.9583 13.7084C33.5416 13.1737 34.2222 12.8937 35 12.8684C35.7777 12.8431 36.4583 13.1231 37.0416 13.7084L56.2916 32.9584C56.5833 33.2501 56.7904 33.566 56.9129 33.9063C57.0354 34.2466 57.0957 34.6112 57.0937 35.0001C57.0918 35.3889 57.0315 35.7535 56.9129 36.0938C56.7943 36.4341 56.5872 36.7501 56.2916 37.0417L37.0416 56.2917C36.5069 56.8264 35.839 57.0938 35.0379 57.0938C34.2368 57.0938 33.5436 56.8264 32.9583 56.2917C32.375 55.7084 32.0833 55.0162 32.0833 54.2151C32.0833 53.4139 32.375 52.7207 32.9583 52.1355L47.177 37.9167Z" fill="#114014"/>
</svg>
